<?xml version="1.0" encoding="UTF-8" standalone="no"?>
<svg
   xmlns:osb="http://www.openswatchbook.org/uri/2009/osb"
   xmlns:dc="http://purl.org/dc/elements/1.1/"
   xmlns:cc="http://creativecommons.org/ns#"
   xmlns:rdf="http://www.w3.org/1999/02/22-rdf-syntax-ns#"
   xmlns:svg="http://www.w3.org/2000/svg"
   xmlns="http://www.w3.org/2000/svg"
   xmlns:sodipodi="http://sodipodi.sourceforge.net/DTD/sodipodi-0.dtd"
   xmlns:inkscape="http://www.inkscape.org/namespaces/inkscape"
   width="128"
   height="128"
   viewBox="0 0 8 8"
   version="1"
   id="svg2"
   inkscape:version="0.48.4 r9939"
   sodipodi:docname="icon.svg"
   inkscape:export-filename="C:\Users\Jens\.vscode\extensions\vshaxe-debugadapter\icon.png"
   inkscape:export-xdpi="90"
   inkscape:export-ydpi="90">
  <metadata
     id="metadata26">
    <rdf:RDF>
      <cc:Work
         rdf:about="">
        <dc:format>image/svg+xml</dc:format>
        <dc:type
           rdf:resource="http://purl.org/dc/dcmitype/StillImage" />
        <dc:title></dc:title>
      </cc:Work>
    </rdf:RDF>
  </metadata>
  <defs
     id="defs24">
    <linearGradient
       id="linearGradient3843"
       osb:paint="solid">
      <stop
         style="stop-color:#6dffff;stop-opacity:1;"
         offset="0"
         id="stop3845" />
    </linearGradient>
  </defs>
  <sodipodi:namedview
     pagecolor="#ffffff"
     bordercolor="#666666"
     borderopacity="1"
     objecttolerance="10"
     gridtolerance="10"
     guidetolerance="10"
     inkscape:pageopacity="0"
     inkscape:pageshadow="2"
     inkscape:window-width="1858"
     inkscape:window-height="1057"
     id="namedview22"
     showgrid="false"
     inkscape:zoom="7.8953445"
     inkscape:cx="79.293983"
     inkscape:cy="42.032036"
     inkscape:window-x="1974"
     inkscape:window-y="10"
     inkscape:window-maximized="1"
     inkscape:current-layer="svg2" />
  <g
     id="g2992"
     transform="matrix(0.78125,0,0,0.78125,-0.01480467,0.03125)">
    <path
       id="path4"
       d="M 1,1 H 7 V 7 H 1 z"
       inkscape:connector-curvature="0"
       style="fill:#f7941e" />
    <path
       id="path6"
       d="M 0,0 H 2 L 4,1 1,4 0,2 z"
       inkscape:connector-curvature="0"
       style="fill:#fdb813" />
    <path
       id="path8"
       d="M 1,4 4,7 2,8 H 0 V 6 z"
       inkscape:connector-curvature="0"
       style="fill:#faa61a" />
    <path
       id="path10"
       d="M 4,1 6,0 H 8 V 2 L 7,4 z"
       inkscape:connector-curvature="0"
       style="fill:#f58220" />
    <path
       id="path12"
       d="M 7,4 8,6 V 8 H 6 L 4,7 z"
       inkscape:connector-curvature="0"
       style="fill:#f36f21" />
    <path
       id="path14"
       d="M 0,0 1,4 0,8 V 6 L 1,4 0,2 z"
       inkscape:connector-curvature="0"
       style="fill:#fff200" />
    <path
       id="path16"
       d="M 0,0 4,1 8,0 H 6 L 4,1 2,0 z"
       inkscape:connector-curvature="0"
       style="fill:#ffcb08" />
    <path
       id="path18"
       d="M 8,0 V 2 L 7,4 8,6 V 8 L 7,4 z"
       inkscape:connector-curvature="0"
       style="fill:#f15922" />
    <path
       id="path20"
       d="M 0,8 H 2 L 4,7 6,8 H 8 L 4,7 z"
       inkscape:connector-curvature="0"
       style="fill:#f68b2d" />
  </g>
  <path
     sodipodi:type="arc"
     style="fill:#2d2d2d;fill-opacity:1;stroke:none"
     id="path5320"
     sodipodi:cx="-17.08457"
     sodipodi:cy="31.857426"
     sodipodi:rx="40.198986"
     sodipodi:ry="40.198986"
     d="m 23.114416,31.857426 a 40.198986,40.198986 0 1 1 -80.397972,0 40.198986,40.198986 0 1 1 80.397972,0 z"
     transform="matrix(0.07307398,0,0,0.07307398,6.3257137,2.7345512)" />
  <g
     transform="matrix(0.20932802,0,0,0.20932802,1.6844991,1.6965533)"
     id="iconBg"
     style="fill:#cccccc;fill-opacity:1;stroke:none">
    <path
       inkscape:connector-curvature="0"
       class="icon-white"
       d="m 17.203193,19.551197 v 4.227815 c 0,0.459804 0.08957,1.257993 -0.371227,1.257993 h -1.619269 v -0.995248 h 0.995248 v -3.174841 l -0.172178,-0.179145 c -1.446095,1.199274 -3.511235,1.24207 -4.647809,0.107487 -1.151502,-1.154488 -1.034063,-2.72499 0.21796,-4.715486 H 8.2459592 V 17.07502 H 7.250711 v -1.619269 c 0,-0.4608 0.798189,-0.371227 1.2579937,-0.371227 h 4.0854943 l 4.608994,4.466673 z M 14.217449,9.1130346 H 13.222201 V 8.1177864 h 1.94571 c 0.457814,0 1.040034,0.2189546 1.040034,0.6787592 v 3.3291054 l 0.732503,0.870842 c 0.179145,-0.968377 0.885771,-1.701875 1.904905,-1.701875 0.14232,0 0.348337,0.01393 0.348337,0.03981 V 9.1130346 h 0.995248 v 2.6055594 c 0,0.116444 0.263741,0.380185 0.380185,0.380185 h 2.60556 v 0.995248 h -2.22239 c 0.02687,0 0.0418,0.153268 0.0418,0.296584 0,1.020129 -0.736484,1.74467 -1.703865,1.92282 l 0.870843,0.766341 h 3.330101 c 0.459804,0 0.678759,0.580229 0.678759,1.040034 v 1.94571 H 23.174683 V 18.070268 H 20.666657 L 14.217449,11.798214 V 9.1130346 z m 1.990496,-4.976241 c -6.5955101,0 -11.9429786,5.3474685 -11.9429786,11.9429784 0,6.595509 5.3474685,11.942978 11.9429786,11.942978 6.59551,0 11.942979,-5.347469 11.942979,-11.942978 0,-6.5955099 -5.347469,-11.9429784 -11.942979,-11.9429784 z m 9.952482,11.9429784 c 0,2.38561 -0.845961,4.578141 -2.251251,6.293949 L 9.9139951,8.3785414 C 11.629804,6.9732509 13.82134,6.12729 16.207945,6.12729 c 5.487799,0 9.952482,4.464683 9.952482,9.952482 z m -19.9049642,0 c 0,-2.386605 0.8459609,-4.578142 2.2512514,-6.2939497 L 22.501895,23.782993 c -1.715808,1.4033 -3.90834,2.249261 -6.29395,2.249261 -5.487798,0 -9.9524822,-4.464684 -9.9524822,-9.952482 z"
       id="path8-1"
       style="fill:#cccccc;fill-opacity:1;stroke:none" />
  </g>
</svg>
